<svg width="100" height="32" viewBox="0 0 100 32" fill="none" xmlns="http://www.w3.org/2000/svg">
<g clip-path="url(#clip0_857_5353)">
<path d="M12.5089 11.6803V15.0273H20.5861C20.3717 16.8788 19.7284 18.303 18.7277 19.2288C17.584 20.3682 15.7255 21.65 12.5089 21.65C7.57684 21.65 3.71694 17.6621 3.71694 12.7485C3.71694 7.83485 7.50536 3.84697 12.5089 3.84697C15.1537 3.84697 17.1551 4.91515 18.5847 6.26818L20.9435 3.91818C18.9421 1.99545 16.2259 0.5 12.5089 0.5C5.71837 0.5 0 5.98333 0 12.7485C0 19.5136 5.71837 24.997 12.5089 24.997C16.1544 24.997 18.9421 23.7864 21.0865 21.5788C23.3024 19.3712 24.0172 16.2379 24.0172 13.7455C24.0172 12.9621 23.9457 12.25 23.8742 11.6803H12.5089Z" fill="#0A0A0A"/>
<path d="M34.0213 8.90234C29.6611 8.90234 26.0156 12.2493 26.0156 16.8069C26.0156 21.3645 29.5896 24.7114 34.0213 24.7114C38.4531 24.7114 42.0271 21.4357 42.0271 16.8781C42.0271 12.2493 38.4531 8.90234 34.0213 8.90234ZM34.0213 21.6493C31.591 21.6493 29.5181 19.6554 29.5181 16.8781C29.5181 14.0296 31.591 12.1069 34.0213 12.1069C36.4516 12.1069 38.5246 14.0296 38.5246 16.8781C38.5246 19.6554 36.4516 21.6493 34.0213 21.6493Z" fill="#0A0A0A"/>
<path d="M73.1223 10.6826H72.9793C72.193 9.75689 70.692 8.90234 68.762 8.90234C64.7591 8.90234 61.3281 12.3205 61.3281 16.8069C61.3281 21.222 64.7591 24.7114 68.762 24.7114C70.692 24.7114 72.193 23.8569 72.9793 22.9311H73.1223V24.0705C73.1223 27.0614 71.4782 28.6993 68.905 28.6993C66.7606 28.6993 65.4739 27.2039 64.9021 25.8508L61.9 27.1326C62.7577 29.1978 65.1165 31.8326 68.9764 31.8326C73.0508 31.8326 76.5533 29.4114 76.5533 23.572V9.32962H73.2652V10.6826H73.1223ZM69.1194 21.6493C66.6891 21.6493 64.9021 19.5842 64.9021 16.8781C64.9021 14.1008 66.7606 12.1069 69.1194 12.1069C71.4782 12.1069 73.3367 14.172 73.3367 16.9493C73.4082 19.6554 71.5497 21.6493 69.1194 21.6493Z" fill="#0A0A0A"/>
<path d="M51.826 8.90234C47.4658 8.90234 43.8203 12.2493 43.8203 16.8069C43.8203 21.3645 47.3943 24.7114 51.826 24.7114C56.2578 24.7114 59.8317 21.4357 59.8317 16.8781C59.8317 12.2493 56.2578 8.90234 51.826 8.90234ZM51.826 21.6493C49.3957 21.6493 47.3228 19.6554 47.3228 16.8781C47.3228 14.0296 49.3957 12.1069 51.826 12.1069C54.2563 12.1069 56.3292 14.0296 56.3292 16.8781C56.3292 19.6554 54.2563 21.6493 51.826 21.6493Z" fill="#0A0A0A"/>
<path d="M79.2031 0.855469H82.6341V24.7827H79.2031V0.855469Z" fill="#0A0A0A"/>
<path d="M93.2065 21.6493C91.4195 21.6493 90.2044 20.866 89.3466 19.2281L99.9971 14.8842L99.6397 13.9584C98.9964 12.1781 96.9234 8.90234 92.8491 8.90234C88.7748 8.90234 85.3438 12.1069 85.3438 16.8069C85.3438 21.222 88.7033 24.7114 93.2065 24.7114C96.852 24.7114 98.9249 22.5039 99.8541 21.222L97.1379 19.4417C96.2086 20.7948 94.9935 21.6493 93.2065 21.6493ZM92.9921 11.8933C94.4217 11.8933 95.6368 12.6054 95.9942 13.6023L88.8463 16.5933C88.7748 13.3175 91.2051 11.8933 92.9921 11.8933Z" fill="#0A0A0A"/>
</g>
<defs>
<clipPath id="clip0_857_5353">
<rect width="100" height="31.3333" fill="white" transform="translate(0 0.5)"/>
</clipPath>
</defs>
</svg>
